<svg xmlns="http://www.w3.org/2000/svg" id="Group_1" data-name="Group 1" viewBox="0 0 84 47.345"><defs><style>
      .cls-1 {
        fill: #f9be49;
      }

      .cls-2 {
        fill: #fff;
      }
    </style></defs><g id="Group_273" data-name="Group 273"><path id="Path_21" data-name="Path 21" class="cls-1" d="M74.654,20.61V7.413H47.489L43.236,0,38.67,7.413H9.33v13.2H0v1.01A10.317,10.317,0,0,0,10.368,31.868a10.449,10.449,0,0,0,5.8-1.743l-1.154-1.678a8.371,8.371,0,0,1-4.648,1.4,8.284,8.284,0,0,1-8.242-7.2H13.648V20.61H11.39V9.45H39.824L43.17,4.008,46.286,9.45H72.593V20.626H64.286v2.02H81.874a8.335,8.335,0,0,1-14.6,4.269l-1.582,1.3A10.392,10.392,0,0,0,84,21.636v-1.01H74.654Z"></path><g id="Group_269" data-name="Group 269" transform="translate(15.033 35.582)"><g id="Group_261" data-name="Group 261" transform="translate(0 0.049)"><path id="Path_22" data-name="Path 22" class="cls-1" d="M91.2,226.1v-7.4l5.11,5.279v-4.806h1.055v7.348l-5.11-5.279V226.1Z" transform="translate(-91.2 -218.7)"></path></g><g id="Group_262" data-name="Group 262" transform="translate(7.121 0.065)"><path id="Path_23" data-name="Path 23" class="cls-1" d="M139.312,224.486h-3l-.775,1.678H134.4l3.462-7.364,3.346,7.364h-1.154Zm-.445-.978-1.038-2.362-1.088,2.362Z" transform="translate(-134.4 -218.8)"></path></g><g id="Group_263" data-name="Group 263" transform="translate(17.423)"><path id="Path_24" data-name="Path 24" class="cls-1" d="M196.9,225.846l1.467-7.446,2.407,5.377,2.489-5.377,1.319,7.446H203.51l-.676-4.187-2.077,4.5-2.011-4.5-.758,4.187Z" transform="translate(-196.9 -218.4)"></path></g><g id="Group_264" data-name="Group 264" transform="translate(26.588 0.505)"><path id="Path_25" data-name="Path 25" class="cls-1" d="M256.374,222.494h-2.8v1.662h2.72v.978h-2.72v2.314h2.8v.978H252.5V221.5h3.874Z" transform="translate(-252.5 -221.5)"></path></g><g id="Group_265" data-name="Group 265" transform="translate(31.863 0.521)"><path id="Path_26" data-name="Path 26" class="cls-1" d="M284.5,228.524V221.6h1.467a5.025,5.025,0,0,1,1.665.212,2.9,2.9,0,0,1,1.187.684,3.554,3.554,0,0,1-.05,5.165,3.4,3.4,0,0,1-1.187.684,5.385,5.385,0,0,1-1.648.2H284.5Zm1.055-.994h.478a4.051,4.051,0,0,0,1.187-.147,2.426,2.426,0,0,0,.857-.505,2.328,2.328,0,0,0,.775-1.841,2.382,2.382,0,0,0-.775-1.841,2.917,2.917,0,0,0-2.044-.635h-.478Z" transform="translate(-284.5 -221.6)"></path></g><g id="Group_266" data-name="Group 266" transform="translate(38.604 0.505)"><path id="Path_27" data-name="Path 27" class="cls-1" d="M326.455,221.5v6.924H325.4V221.5Z" transform="translate(-325.4 -221.5)"></path></g><g id="Group_267" data-name="Group 267" transform="translate(41.341 0.521)"><path id="Path_28" data-name="Path 28" class="cls-1" d="M342,228.524V221.6h1.467a5.025,5.025,0,0,1,1.665.212,2.9,2.9,0,0,1,1.187.684,3.553,3.553,0,0,1-.05,5.165,3.4,3.4,0,0,1-1.187.684,5.384,5.384,0,0,1-1.648.2H342Zm1.055-.994h.478a4.051,4.051,0,0,0,1.187-.147,2.425,2.425,0,0,0,.857-.505,2.328,2.328,0,0,0,.775-1.841,2.382,2.382,0,0,0-.775-1.841,2.917,2.917,0,0,0-2.044-.635h-.478Z" transform="translate(-342 -221.6)"></path></g><g id="Group_268" data-name="Group 268" transform="translate(46.945 0.065)"><path id="Path_29" data-name="Path 29" class="cls-1" d="M380.928,224.486h-3l-.775,1.678H376l3.461-7.364,3.346,7.364h-1.154Zm-.445-.978-1.038-2.362-1.088,2.362Z" transform="translate(-376 -218.8)"></path></g></g><g id="Group_270" data-name="Group 270" transform="translate(11.703 11.682)"><path id="Path_30" data-name="Path 30" class="cls-2" d="M71,82.714a10.432,10.432,0,0,1,3.363-7.771A11.078,11.078,0,0,1,82.39,71.7a10.91,10.91,0,0,1,7.945,3.275,10.622,10.622,0,0,1,3.33,7.869,10.49,10.49,0,0,1-3.346,7.837,11.573,11.573,0,0,1-15.643.358A10.5,10.5,0,0,1,71,82.714Zm3.3.033a8,8,0,0,0,7.945,8.114,8.15,8.15,0,0,0,5.786-13.832,7.7,7.7,0,0,0-5.7-2.33A7.92,7.92,0,0,0,74.3,82.746Z" transform="translate(-71 -71.7)"></path></g><g id="Group_271" data-name="Group 271" transform="translate(30.808 8.114)"><path id="Path_31" data-name="Path 31" class="cls-2" d="M204.488,70.1H193.757l-2.786,6.012H186.9L199.3,49.8l11.95,26.312h-4.137Zm-1.549-3.5-3.709-8.423L195.34,66.6Z" transform="translate(-186.9 -49.8)"></path></g><g id="Group_272" data-name="Group 272" transform="translate(55.368 12.073)"><path id="Path_32" data-name="Path 32" class="cls-2" d="M335.9,95.524V74.1h3.264a14.943,14.943,0,0,1,3.462.326,5.442,5.442,0,0,1,2.209,1.124,5.819,5.819,0,0,1,1.451,2.037,6.187,6.187,0,0,1,.544,2.493,5.028,5.028,0,0,1-1.78,3.894,5.251,5.251,0,0,1,2.72,2.037,6,6,0,0,1-.791,7.609,5.915,5.915,0,0,1-2.423,1.483,14.614,14.614,0,0,1-3.692.407H335.9Zm3.264-12.219h1.022a3.753,3.753,0,0,0,2.67-.8,3.108,3.108,0,0,0,.857-2.346,2.942,2.942,0,0,0-.874-2.3,3.643,3.643,0,0,0-2.522-.782h-1.154Zm0,9.173h2.028a5.092,5.092,0,0,0,3.264-.863,3.1,3.1,0,0,0,.033-4.692,5.5,5.5,0,0,0-3.659-.929H339.18v6.484Z" transform="translate(-335.9 -74.1)"></path></g></g><g id="Group_274" data-name="Group 274" transform="translate(10.368 45.309)"><rect id="Rectangle_74" data-name="Rectangle 74" class="cls-1" width="63.247" height="2.037"></rect></g></svg>